<mxfile host="Electron" modified="2023-10-30T18:58:00.984Z" agent="Mozilla/5.0 (Macintosh; Intel Mac OS X 10_15_7) AppleWebKit/537.36 (KHTML, like Gecko) draw.io/22.0.3 Chrome/114.0.5735.289 Electron/25.8.4 Safari/537.36" etag="1VDv1FxNBE3Ab4lKMTYj" version="22.0.3" type="device">
  <diagram name="Page-1" id="gusNZirbSwCRtQc3CByx">
    <mxGraphModel dx="2473" dy="981" grid="1" gridSize="10" guides="1" tooltips="1" connect="1" arrows="1" fold="1" page="0" pageScale="1" pageWidth="850" pageHeight="1100" math="0" shadow="0">
      <root>
        <mxCell id="0" />
        <mxCell id="aqVbvqTBp94p9ZoE7eEu-1" value="timeline" parent="0" />
        <mxCell id="aqVbvqTBp94p9ZoE7eEu-119" value="" style="rounded=0;whiteSpace=wrap;html=1;strokeColor=none;fillColor=#fce5cd;" parent="aqVbvqTBp94p9ZoE7eEu-1" vertex="1">
          <mxGeometry x="40" y="560" width="300" height="100" as="geometry" />
        </mxCell>
        <mxCell id="aqVbvqTBp94p9ZoE7eEu-120" value="" style="rounded=0;whiteSpace=wrap;html=1;strokeColor=none;fillColor=#b6d7a8;" parent="aqVbvqTBp94p9ZoE7eEu-1" vertex="1">
          <mxGeometry x="340" y="560" width="300" height="100" as="geometry" />
        </mxCell>
        <mxCell id="aqVbvqTBp94p9ZoE7eEu-121" value="" style="rounded=0;whiteSpace=wrap;html=1;strokeColor=none;fillColor=#C9DAF8;" parent="aqVbvqTBp94p9ZoE7eEu-1" vertex="1">
          <mxGeometry x="940" y="560" width="300" height="100" as="geometry" />
        </mxCell>
        <mxCell id="aqVbvqTBp94p9ZoE7eEu-122" value="" style="rounded=0;whiteSpace=wrap;html=1;strokeColor=none;fillColor=#FFF2CC;" parent="aqVbvqTBp94p9ZoE7eEu-1" vertex="1">
          <mxGeometry x="640" y="560" width="300" height="100" as="geometry" />
        </mxCell>
        <mxCell id="aqVbvqTBp94p9ZoE7eEu-4" value="" style="endArrow=none;html=1;rounded=0;strokeWidth=2;strokeColor=#000099;" parent="aqVbvqTBp94p9ZoE7eEu-1" edge="1">
          <mxGeometry width="50" height="50" relative="1" as="geometry">
            <mxPoint x="40" y="630" as="sourcePoint" />
            <mxPoint x="40" y="570" as="targetPoint" />
          </mxGeometry>
        </mxCell>
        <mxCell id="aqVbvqTBp94p9ZoE7eEu-5" value="" style="endArrow=none;html=1;rounded=0;strokeWidth=2;strokeColor=#000099;" parent="aqVbvqTBp94p9ZoE7eEu-1" edge="1">
          <mxGeometry width="50" height="50" relative="1" as="geometry">
            <mxPoint x="70" y="620" as="sourcePoint" />
            <mxPoint x="70" y="580" as="targetPoint" />
          </mxGeometry>
        </mxCell>
        <mxCell id="aqVbvqTBp94p9ZoE7eEu-8" value="" style="endArrow=none;html=1;rounded=0;strokeWidth=2;strokeColor=#000099;" parent="aqVbvqTBp94p9ZoE7eEu-1" edge="1">
          <mxGeometry width="50" height="50" relative="1" as="geometry">
            <mxPoint x="100" y="620" as="sourcePoint" />
            <mxPoint x="100" y="580" as="targetPoint" />
          </mxGeometry>
        </mxCell>
        <mxCell id="aqVbvqTBp94p9ZoE7eEu-9" value="" style="endArrow=none;html=1;rounded=0;strokeWidth=2;strokeColor=#000099;" parent="aqVbvqTBp94p9ZoE7eEu-1" edge="1">
          <mxGeometry width="50" height="50" relative="1" as="geometry">
            <mxPoint x="130" y="620" as="sourcePoint" />
            <mxPoint x="130" y="580" as="targetPoint" />
          </mxGeometry>
        </mxCell>
        <mxCell id="aqVbvqTBp94p9ZoE7eEu-10" value="" style="endArrow=none;html=1;rounded=0;strokeWidth=2;strokeColor=#000099;" parent="aqVbvqTBp94p9ZoE7eEu-1" edge="1">
          <mxGeometry width="50" height="50" relative="1" as="geometry">
            <mxPoint x="160" y="620" as="sourcePoint" />
            <mxPoint x="160" y="580" as="targetPoint" />
          </mxGeometry>
        </mxCell>
        <mxCell id="aqVbvqTBp94p9ZoE7eEu-19" value="" style="endArrow=none;html=1;rounded=0;strokeWidth=2;strokeColor=#000099;" parent="aqVbvqTBp94p9ZoE7eEu-1" edge="1">
          <mxGeometry width="50" height="50" relative="1" as="geometry">
            <mxPoint x="190" y="620" as="sourcePoint" />
            <mxPoint x="190" y="580" as="targetPoint" />
          </mxGeometry>
        </mxCell>
        <mxCell id="aqVbvqTBp94p9ZoE7eEu-20" value="" style="endArrow=none;html=1;rounded=0;strokeWidth=2;strokeColor=#000099;" parent="aqVbvqTBp94p9ZoE7eEu-1" edge="1">
          <mxGeometry width="50" height="50" relative="1" as="geometry">
            <mxPoint x="220" y="620" as="sourcePoint" />
            <mxPoint x="220" y="580" as="targetPoint" />
          </mxGeometry>
        </mxCell>
        <mxCell id="aqVbvqTBp94p9ZoE7eEu-21" value="" style="endArrow=none;html=1;rounded=0;strokeWidth=2;strokeColor=#000099;" parent="aqVbvqTBp94p9ZoE7eEu-1" edge="1">
          <mxGeometry width="50" height="50" relative="1" as="geometry">
            <mxPoint x="250" y="620" as="sourcePoint" />
            <mxPoint x="250" y="580" as="targetPoint" />
          </mxGeometry>
        </mxCell>
        <mxCell id="aqVbvqTBp94p9ZoE7eEu-22" value="" style="endArrow=none;html=1;rounded=0;strokeWidth=2;strokeColor=#000099;" parent="aqVbvqTBp94p9ZoE7eEu-1" edge="1">
          <mxGeometry width="50" height="50" relative="1" as="geometry">
            <mxPoint x="280" y="620" as="sourcePoint" />
            <mxPoint x="280" y="580" as="targetPoint" />
          </mxGeometry>
        </mxCell>
        <mxCell id="aqVbvqTBp94p9ZoE7eEu-23" value="" style="endArrow=none;html=1;rounded=0;strokeWidth=2;strokeColor=#000099;" parent="aqVbvqTBp94p9ZoE7eEu-1" edge="1">
          <mxGeometry width="50" height="50" relative="1" as="geometry">
            <mxPoint x="310" y="620" as="sourcePoint" />
            <mxPoint x="310" y="580" as="targetPoint" />
          </mxGeometry>
        </mxCell>
        <mxCell id="aqVbvqTBp94p9ZoE7eEu-24" value="" style="endArrow=none;html=1;rounded=0;strokeWidth=2;strokeColor=#000099;" parent="aqVbvqTBp94p9ZoE7eEu-1" edge="1">
          <mxGeometry width="50" height="50" relative="1" as="geometry">
            <mxPoint x="400" y="620" as="sourcePoint" />
            <mxPoint x="400" y="580" as="targetPoint" />
          </mxGeometry>
        </mxCell>
        <mxCell id="aqVbvqTBp94p9ZoE7eEu-25" value="" style="endArrow=none;html=1;rounded=0;strokeWidth=2;strokeColor=#000099;" parent="aqVbvqTBp94p9ZoE7eEu-1" edge="1">
          <mxGeometry width="50" height="50" relative="1" as="geometry">
            <mxPoint x="370" y="620" as="sourcePoint" />
            <mxPoint x="370" y="580" as="targetPoint" />
          </mxGeometry>
        </mxCell>
        <mxCell id="aqVbvqTBp94p9ZoE7eEu-29" value="&lt;font style=&quot;font-size: 24px;&quot;&gt;0&lt;/font&gt;" style="text;html=1;strokeColor=none;fillColor=none;align=center;verticalAlign=middle;whiteSpace=wrap;rounded=0;" parent="aqVbvqTBp94p9ZoE7eEu-1" vertex="1">
          <mxGeometry x="40" y="600" width="30" height="30" as="geometry" />
        </mxCell>
        <mxCell id="aqVbvqTBp94p9ZoE7eEu-30" value="&lt;span style=&quot;font-size: 24px;&quot;&gt;1&lt;/span&gt;" style="text;html=1;strokeColor=none;fillColor=none;align=center;verticalAlign=middle;whiteSpace=wrap;rounded=0;" parent="aqVbvqTBp94p9ZoE7eEu-1" vertex="1">
          <mxGeometry x="70" y="600" width="30" height="30" as="geometry" />
        </mxCell>
        <mxCell id="aqVbvqTBp94p9ZoE7eEu-31" value="&lt;font style=&quot;font-size: 24px;&quot;&gt;3&lt;/font&gt;" style="text;html=1;strokeColor=none;fillColor=none;align=center;verticalAlign=middle;whiteSpace=wrap;rounded=0;" parent="aqVbvqTBp94p9ZoE7eEu-1" vertex="1">
          <mxGeometry x="130" y="600" width="30" height="30" as="geometry" />
        </mxCell>
        <mxCell id="aqVbvqTBp94p9ZoE7eEu-32" value="&lt;font style=&quot;font-size: 24px;&quot;&gt;2&lt;/font&gt;" style="text;html=1;strokeColor=none;fillColor=none;align=center;verticalAlign=middle;whiteSpace=wrap;rounded=0;" parent="aqVbvqTBp94p9ZoE7eEu-1" vertex="1">
          <mxGeometry x="100" y="600" width="30" height="30" as="geometry" />
        </mxCell>
        <mxCell id="aqVbvqTBp94p9ZoE7eEu-33" value="&lt;font style=&quot;font-size: 24px;&quot;&gt;4&lt;/font&gt;" style="text;html=1;strokeColor=none;fillColor=none;align=center;verticalAlign=middle;whiteSpace=wrap;rounded=0;" parent="aqVbvqTBp94p9ZoE7eEu-1" vertex="1">
          <mxGeometry x="160" y="600" width="30" height="30" as="geometry" />
        </mxCell>
        <mxCell id="aqVbvqTBp94p9ZoE7eEu-34" value="&lt;font style=&quot;font-size: 24px;&quot;&gt;5&lt;/font&gt;" style="text;html=1;strokeColor=none;fillColor=none;align=center;verticalAlign=middle;whiteSpace=wrap;rounded=0;" parent="aqVbvqTBp94p9ZoE7eEu-1" vertex="1">
          <mxGeometry x="190" y="600" width="30" height="30" as="geometry" />
        </mxCell>
        <mxCell id="aqVbvqTBp94p9ZoE7eEu-35" value="&lt;font style=&quot;font-size: 24px;&quot;&gt;6&lt;/font&gt;" style="text;html=1;strokeColor=none;fillColor=none;align=center;verticalAlign=middle;whiteSpace=wrap;rounded=0;" parent="aqVbvqTBp94p9ZoE7eEu-1" vertex="1">
          <mxGeometry x="220" y="600" width="30" height="30" as="geometry" />
        </mxCell>
        <mxCell id="aqVbvqTBp94p9ZoE7eEu-36" value="&lt;font style=&quot;font-size: 24px;&quot;&gt;7&lt;/font&gt;" style="text;html=1;strokeColor=none;fillColor=none;align=center;verticalAlign=middle;whiteSpace=wrap;rounded=0;" parent="aqVbvqTBp94p9ZoE7eEu-1" vertex="1">
          <mxGeometry x="250" y="600" width="30" height="30" as="geometry" />
        </mxCell>
        <mxCell id="aqVbvqTBp94p9ZoE7eEu-37" value="&lt;font style=&quot;font-size: 24px;&quot;&gt;8&lt;/font&gt;" style="text;html=1;strokeColor=none;fillColor=none;align=center;verticalAlign=middle;whiteSpace=wrap;rounded=0;" parent="aqVbvqTBp94p9ZoE7eEu-1" vertex="1">
          <mxGeometry x="280" y="600" width="30" height="30" as="geometry" />
        </mxCell>
        <mxCell id="aqVbvqTBp94p9ZoE7eEu-38" value="&lt;font style=&quot;font-size: 24px;&quot;&gt;9&lt;/font&gt;" style="text;html=1;strokeColor=none;fillColor=none;align=center;verticalAlign=middle;whiteSpace=wrap;rounded=0;" parent="aqVbvqTBp94p9ZoE7eEu-1" vertex="1">
          <mxGeometry x="310" y="600" width="30" height="30" as="geometry" />
        </mxCell>
        <mxCell id="aqVbvqTBp94p9ZoE7eEu-41" value="" style="endArrow=none;html=1;rounded=0;strokeWidth=2;strokeColor=#000099;" parent="aqVbvqTBp94p9ZoE7eEu-1" edge="1">
          <mxGeometry width="50" height="50" relative="1" as="geometry">
            <mxPoint x="340" y="630" as="sourcePoint" />
            <mxPoint x="340" y="570" as="targetPoint" />
          </mxGeometry>
        </mxCell>
        <mxCell id="aqVbvqTBp94p9ZoE7eEu-42" value="" style="endArrow=none;html=1;rounded=0;strokeWidth=2;strokeColor=#000099;" parent="aqVbvqTBp94p9ZoE7eEu-1" edge="1">
          <mxGeometry width="50" height="50" relative="1" as="geometry">
            <mxPoint x="430" y="620" as="sourcePoint" />
            <mxPoint x="430" y="580" as="targetPoint" />
          </mxGeometry>
        </mxCell>
        <mxCell id="aqVbvqTBp94p9ZoE7eEu-43" value="" style="endArrow=none;html=1;rounded=0;strokeWidth=2;strokeColor=#000099;" parent="aqVbvqTBp94p9ZoE7eEu-1" edge="1">
          <mxGeometry width="50" height="50" relative="1" as="geometry">
            <mxPoint x="460" y="620" as="sourcePoint" />
            <mxPoint x="460" y="580" as="targetPoint" />
          </mxGeometry>
        </mxCell>
        <mxCell id="aqVbvqTBp94p9ZoE7eEu-44" value="" style="endArrow=none;html=1;rounded=0;strokeWidth=2;strokeColor=#000099;" parent="aqVbvqTBp94p9ZoE7eEu-1" edge="1">
          <mxGeometry width="50" height="50" relative="1" as="geometry">
            <mxPoint x="490" y="620" as="sourcePoint" />
            <mxPoint x="490" y="580" as="targetPoint" />
          </mxGeometry>
        </mxCell>
        <mxCell id="aqVbvqTBp94p9ZoE7eEu-45" value="" style="endArrow=none;html=1;rounded=0;strokeWidth=2;strokeColor=#000099;" parent="aqVbvqTBp94p9ZoE7eEu-1" edge="1">
          <mxGeometry width="50" height="50" relative="1" as="geometry">
            <mxPoint x="520" y="620" as="sourcePoint" />
            <mxPoint x="520" y="580" as="targetPoint" />
          </mxGeometry>
        </mxCell>
        <mxCell id="aqVbvqTBp94p9ZoE7eEu-46" value="" style="endArrow=none;html=1;rounded=0;strokeWidth=2;strokeColor=#000099;" parent="aqVbvqTBp94p9ZoE7eEu-1" edge="1">
          <mxGeometry width="50" height="50" relative="1" as="geometry">
            <mxPoint x="550" y="620" as="sourcePoint" />
            <mxPoint x="550" y="580" as="targetPoint" />
          </mxGeometry>
        </mxCell>
        <mxCell id="aqVbvqTBp94p9ZoE7eEu-47" value="" style="endArrow=none;html=1;rounded=0;strokeWidth=2;strokeColor=#000099;" parent="aqVbvqTBp94p9ZoE7eEu-1" edge="1">
          <mxGeometry width="50" height="50" relative="1" as="geometry">
            <mxPoint x="580" y="620" as="sourcePoint" />
            <mxPoint x="580" y="580" as="targetPoint" />
          </mxGeometry>
        </mxCell>
        <mxCell id="aqVbvqTBp94p9ZoE7eEu-48" value="" style="endArrow=none;html=1;rounded=0;strokeWidth=2;strokeColor=#000099;" parent="aqVbvqTBp94p9ZoE7eEu-1" edge="1">
          <mxGeometry width="50" height="50" relative="1" as="geometry">
            <mxPoint x="610" y="620" as="sourcePoint" />
            <mxPoint x="610" y="580" as="targetPoint" />
          </mxGeometry>
        </mxCell>
        <mxCell id="aqVbvqTBp94p9ZoE7eEu-49" value="" style="endArrow=none;html=1;rounded=0;strokeWidth=2;strokeColor=#000099;" parent="aqVbvqTBp94p9ZoE7eEu-1" edge="1">
          <mxGeometry width="50" height="50" relative="1" as="geometry">
            <mxPoint x="760" y="620" as="sourcePoint" />
            <mxPoint x="760" y="580" as="targetPoint" />
          </mxGeometry>
        </mxCell>
        <mxCell id="aqVbvqTBp94p9ZoE7eEu-50" value="" style="endArrow=none;html=1;rounded=0;strokeWidth=2;strokeColor=#000099;" parent="aqVbvqTBp94p9ZoE7eEu-1" edge="1">
          <mxGeometry width="50" height="50" relative="1" as="geometry">
            <mxPoint x="670" y="620" as="sourcePoint" />
            <mxPoint x="670" y="580" as="targetPoint" />
          </mxGeometry>
        </mxCell>
        <mxCell id="aqVbvqTBp94p9ZoE7eEu-51" value="" style="endArrow=none;html=1;rounded=0;strokeWidth=2;strokeColor=#000099;" parent="aqVbvqTBp94p9ZoE7eEu-1" edge="1">
          <mxGeometry width="50" height="50" relative="1" as="geometry">
            <mxPoint x="700" y="620" as="sourcePoint" />
            <mxPoint x="700" y="580" as="targetPoint" />
          </mxGeometry>
        </mxCell>
        <mxCell id="aqVbvqTBp94p9ZoE7eEu-52" value="" style="endArrow=none;html=1;rounded=0;strokeWidth=2;strokeColor=#000099;" parent="aqVbvqTBp94p9ZoE7eEu-1" edge="1">
          <mxGeometry width="50" height="50" relative="1" as="geometry">
            <mxPoint x="730" y="620" as="sourcePoint" />
            <mxPoint x="730" y="580" as="targetPoint" />
          </mxGeometry>
        </mxCell>
        <mxCell id="aqVbvqTBp94p9ZoE7eEu-65" value="" style="endArrow=none;html=1;rounded=0;strokeWidth=2;strokeColor=#000099;" parent="aqVbvqTBp94p9ZoE7eEu-1" edge="1">
          <mxGeometry width="50" height="50" relative="1" as="geometry">
            <mxPoint x="640" y="630" as="sourcePoint" />
            <mxPoint x="640" y="570" as="targetPoint" />
          </mxGeometry>
        </mxCell>
        <mxCell id="aqVbvqTBp94p9ZoE7eEu-66" value="" style="endArrow=none;html=1;rounded=0;strokeWidth=2;strokeColor=#000099;" parent="aqVbvqTBp94p9ZoE7eEu-1" edge="1">
          <mxGeometry width="50" height="50" relative="1" as="geometry">
            <mxPoint x="790" y="620" as="sourcePoint" />
            <mxPoint x="790" y="580" as="targetPoint" />
          </mxGeometry>
        </mxCell>
        <mxCell id="aqVbvqTBp94p9ZoE7eEu-67" value="" style="endArrow=none;html=1;rounded=0;strokeWidth=2;strokeColor=#000099;" parent="aqVbvqTBp94p9ZoE7eEu-1" edge="1">
          <mxGeometry width="50" height="50" relative="1" as="geometry">
            <mxPoint x="820" y="620" as="sourcePoint" />
            <mxPoint x="820" y="580" as="targetPoint" />
          </mxGeometry>
        </mxCell>
        <mxCell id="aqVbvqTBp94p9ZoE7eEu-68" value="" style="endArrow=none;html=1;rounded=0;strokeWidth=2;strokeColor=#000099;" parent="aqVbvqTBp94p9ZoE7eEu-1" edge="1">
          <mxGeometry width="50" height="50" relative="1" as="geometry">
            <mxPoint x="850" y="620" as="sourcePoint" />
            <mxPoint x="850" y="580" as="targetPoint" />
          </mxGeometry>
        </mxCell>
        <mxCell id="aqVbvqTBp94p9ZoE7eEu-69" value="" style="endArrow=none;html=1;rounded=0;strokeWidth=2;strokeColor=#000099;" parent="aqVbvqTBp94p9ZoE7eEu-1" edge="1">
          <mxGeometry width="50" height="50" relative="1" as="geometry">
            <mxPoint x="880" y="620" as="sourcePoint" />
            <mxPoint x="880" y="580" as="targetPoint" />
          </mxGeometry>
        </mxCell>
        <mxCell id="aqVbvqTBp94p9ZoE7eEu-70" value="" style="endArrow=none;html=1;rounded=0;strokeWidth=2;strokeColor=#000099;" parent="aqVbvqTBp94p9ZoE7eEu-1" edge="1">
          <mxGeometry width="50" height="50" relative="1" as="geometry">
            <mxPoint x="910" y="620" as="sourcePoint" />
            <mxPoint x="910" y="580" as="targetPoint" />
          </mxGeometry>
        </mxCell>
        <mxCell id="aqVbvqTBp94p9ZoE7eEu-71" value="" style="endArrow=none;html=1;rounded=0;strokeWidth=2;strokeColor=#000099;" parent="aqVbvqTBp94p9ZoE7eEu-1" edge="1">
          <mxGeometry width="50" height="50" relative="1" as="geometry">
            <mxPoint x="1120" y="620" as="sourcePoint" />
            <mxPoint x="1120" y="580" as="targetPoint" />
          </mxGeometry>
        </mxCell>
        <mxCell id="aqVbvqTBp94p9ZoE7eEu-72" value="" style="endArrow=none;html=1;rounded=0;strokeWidth=2;strokeColor=#000099;" parent="aqVbvqTBp94p9ZoE7eEu-1" edge="1">
          <mxGeometry width="50" height="50" relative="1" as="geometry">
            <mxPoint x="970" y="620" as="sourcePoint" />
            <mxPoint x="970" y="580" as="targetPoint" />
          </mxGeometry>
        </mxCell>
        <mxCell id="aqVbvqTBp94p9ZoE7eEu-73" value="" style="endArrow=none;html=1;rounded=0;strokeWidth=2;strokeColor=#000099;" parent="aqVbvqTBp94p9ZoE7eEu-1" edge="1">
          <mxGeometry width="50" height="50" relative="1" as="geometry">
            <mxPoint x="1000" y="620" as="sourcePoint" />
            <mxPoint x="1000" y="580" as="targetPoint" />
          </mxGeometry>
        </mxCell>
        <mxCell id="aqVbvqTBp94p9ZoE7eEu-74" value="" style="endArrow=none;html=1;rounded=0;strokeWidth=2;strokeColor=#000099;" parent="aqVbvqTBp94p9ZoE7eEu-1" edge="1">
          <mxGeometry width="50" height="50" relative="1" as="geometry">
            <mxPoint x="1030" y="620" as="sourcePoint" />
            <mxPoint x="1030" y="580" as="targetPoint" />
          </mxGeometry>
        </mxCell>
        <mxCell id="aqVbvqTBp94p9ZoE7eEu-75" value="" style="endArrow=none;html=1;rounded=0;strokeWidth=2;strokeColor=#000099;" parent="aqVbvqTBp94p9ZoE7eEu-1" edge="1">
          <mxGeometry width="50" height="50" relative="1" as="geometry">
            <mxPoint x="1060" y="620" as="sourcePoint" />
            <mxPoint x="1060" y="580" as="targetPoint" />
          </mxGeometry>
        </mxCell>
        <mxCell id="aqVbvqTBp94p9ZoE7eEu-76" value="" style="endArrow=none;html=1;rounded=0;strokeWidth=2;strokeColor=#000099;" parent="aqVbvqTBp94p9ZoE7eEu-1" edge="1">
          <mxGeometry width="50" height="50" relative="1" as="geometry">
            <mxPoint x="1090" y="620" as="sourcePoint" />
            <mxPoint x="1090" y="580" as="targetPoint" />
          </mxGeometry>
        </mxCell>
        <mxCell id="aqVbvqTBp94p9ZoE7eEu-89" value="" style="endArrow=none;html=1;rounded=0;strokeWidth=2;strokeColor=#000099;" parent="aqVbvqTBp94p9ZoE7eEu-1" edge="1">
          <mxGeometry width="50" height="50" relative="1" as="geometry">
            <mxPoint x="940" y="630" as="sourcePoint" />
            <mxPoint x="940" y="570" as="targetPoint" />
          </mxGeometry>
        </mxCell>
        <mxCell id="aqVbvqTBp94p9ZoE7eEu-90" value="" style="endArrow=none;html=1;rounded=0;strokeWidth=2;strokeColor=#000099;" parent="aqVbvqTBp94p9ZoE7eEu-1" edge="1">
          <mxGeometry width="50" height="50" relative="1" as="geometry">
            <mxPoint x="1150" y="620" as="sourcePoint" />
            <mxPoint x="1150" y="580" as="targetPoint" />
          </mxGeometry>
        </mxCell>
        <mxCell id="aqVbvqTBp94p9ZoE7eEu-91" value="" style="endArrow=none;html=1;rounded=0;strokeWidth=2;strokeColor=#000099;" parent="aqVbvqTBp94p9ZoE7eEu-1" edge="1">
          <mxGeometry width="50" height="50" relative="1" as="geometry">
            <mxPoint x="1180" y="620" as="sourcePoint" />
            <mxPoint x="1180" y="580" as="targetPoint" />
          </mxGeometry>
        </mxCell>
        <mxCell id="aqVbvqTBp94p9ZoE7eEu-92" value="" style="endArrow=none;html=1;rounded=0;strokeWidth=2;strokeColor=#000099;" parent="aqVbvqTBp94p9ZoE7eEu-1" edge="1">
          <mxGeometry width="50" height="50" relative="1" as="geometry">
            <mxPoint x="1210" y="620" as="sourcePoint" />
            <mxPoint x="1210" y="580" as="targetPoint" />
          </mxGeometry>
        </mxCell>
        <mxCell id="aqVbvqTBp94p9ZoE7eEu-115" value="&lt;font style=&quot;font-size: 24px;&quot;&gt;1960s&lt;/font&gt;" style="text;html=1;strokeColor=none;fillColor=none;align=center;verticalAlign=middle;whiteSpace=wrap;rounded=0;" parent="aqVbvqTBp94p9ZoE7eEu-1" vertex="1">
          <mxGeometry x="40" y="630" width="300" height="30" as="geometry" />
        </mxCell>
        <mxCell id="aqVbvqTBp94p9ZoE7eEu-116" value="&lt;font style=&quot;font-size: 24px;&quot;&gt;1970s&lt;/font&gt;" style="text;html=1;strokeColor=none;fillColor=none;align=center;verticalAlign=middle;whiteSpace=wrap;rounded=0;" parent="aqVbvqTBp94p9ZoE7eEu-1" vertex="1">
          <mxGeometry x="340" y="630" width="300" height="30" as="geometry" />
        </mxCell>
        <mxCell id="aqVbvqTBp94p9ZoE7eEu-117" value="&lt;font style=&quot;font-size: 24px;&quot;&gt;1990s&lt;/font&gt;" style="text;html=1;strokeColor=none;fillColor=none;align=center;verticalAlign=middle;whiteSpace=wrap;rounded=0;" parent="aqVbvqTBp94p9ZoE7eEu-1" vertex="1">
          <mxGeometry x="940" y="630" width="300" height="30" as="geometry" />
        </mxCell>
        <mxCell id="aqVbvqTBp94p9ZoE7eEu-118" value="&lt;font style=&quot;font-size: 24px;&quot;&gt;1980s&lt;/font&gt;" style="text;html=1;strokeColor=none;fillColor=none;align=center;verticalAlign=middle;whiteSpace=wrap;rounded=0;" parent="aqVbvqTBp94p9ZoE7eEu-1" vertex="1">
          <mxGeometry x="640" y="630" width="300" height="30" as="geometry" />
        </mxCell>
        <mxCell id="MMa_PPsF2fyLMhipfHgI-11" value="&lt;font style=&quot;font-size: 24px;&quot;&gt;0&lt;/font&gt;" style="text;html=1;strokeColor=none;fillColor=none;align=center;verticalAlign=middle;whiteSpace=wrap;rounded=0;" parent="aqVbvqTBp94p9ZoE7eEu-1" vertex="1">
          <mxGeometry x="340" y="600" width="30" height="30" as="geometry" />
        </mxCell>
        <mxCell id="MMa_PPsF2fyLMhipfHgI-12" value="&lt;span style=&quot;font-size: 24px;&quot;&gt;1&lt;/span&gt;" style="text;html=1;strokeColor=none;fillColor=none;align=center;verticalAlign=middle;whiteSpace=wrap;rounded=0;" parent="aqVbvqTBp94p9ZoE7eEu-1" vertex="1">
          <mxGeometry x="370" y="600" width="30" height="30" as="geometry" />
        </mxCell>
        <mxCell id="MMa_PPsF2fyLMhipfHgI-13" value="&lt;font style=&quot;font-size: 24px;&quot;&gt;3&lt;/font&gt;" style="text;html=1;strokeColor=none;fillColor=none;align=center;verticalAlign=middle;whiteSpace=wrap;rounded=0;" parent="aqVbvqTBp94p9ZoE7eEu-1" vertex="1">
          <mxGeometry x="430" y="600" width="30" height="30" as="geometry" />
        </mxCell>
        <mxCell id="MMa_PPsF2fyLMhipfHgI-14" value="&lt;font style=&quot;font-size: 24px;&quot;&gt;2&lt;/font&gt;" style="text;html=1;strokeColor=none;fillColor=none;align=center;verticalAlign=middle;whiteSpace=wrap;rounded=0;" parent="aqVbvqTBp94p9ZoE7eEu-1" vertex="1">
          <mxGeometry x="400" y="600" width="30" height="30" as="geometry" />
        </mxCell>
        <mxCell id="MMa_PPsF2fyLMhipfHgI-15" value="&lt;font style=&quot;font-size: 24px;&quot;&gt;4&lt;/font&gt;" style="text;html=1;strokeColor=none;fillColor=none;align=center;verticalAlign=middle;whiteSpace=wrap;rounded=0;" parent="aqVbvqTBp94p9ZoE7eEu-1" vertex="1">
          <mxGeometry x="460" y="600" width="30" height="30" as="geometry" />
        </mxCell>
        <mxCell id="MMa_PPsF2fyLMhipfHgI-16" value="&lt;font style=&quot;font-size: 24px;&quot;&gt;5&lt;/font&gt;" style="text;html=1;strokeColor=none;fillColor=none;align=center;verticalAlign=middle;whiteSpace=wrap;rounded=0;" parent="aqVbvqTBp94p9ZoE7eEu-1" vertex="1">
          <mxGeometry x="490" y="600" width="30" height="30" as="geometry" />
        </mxCell>
        <mxCell id="MMa_PPsF2fyLMhipfHgI-17" value="&lt;font style=&quot;font-size: 24px;&quot;&gt;6&lt;/font&gt;" style="text;html=1;strokeColor=none;fillColor=none;align=center;verticalAlign=middle;whiteSpace=wrap;rounded=0;" parent="aqVbvqTBp94p9ZoE7eEu-1" vertex="1">
          <mxGeometry x="520" y="600" width="30" height="30" as="geometry" />
        </mxCell>
        <mxCell id="MMa_PPsF2fyLMhipfHgI-18" value="&lt;font style=&quot;font-size: 24px;&quot;&gt;7&lt;/font&gt;" style="text;html=1;strokeColor=none;fillColor=none;align=center;verticalAlign=middle;whiteSpace=wrap;rounded=0;" parent="aqVbvqTBp94p9ZoE7eEu-1" vertex="1">
          <mxGeometry x="550" y="600" width="30" height="30" as="geometry" />
        </mxCell>
        <mxCell id="MMa_PPsF2fyLMhipfHgI-19" value="&lt;font style=&quot;font-size: 24px;&quot;&gt;8&lt;/font&gt;" style="text;html=1;strokeColor=none;fillColor=none;align=center;verticalAlign=middle;whiteSpace=wrap;rounded=0;" parent="aqVbvqTBp94p9ZoE7eEu-1" vertex="1">
          <mxGeometry x="580" y="600" width="30" height="30" as="geometry" />
        </mxCell>
        <mxCell id="MMa_PPsF2fyLMhipfHgI-20" value="&lt;font style=&quot;font-size: 24px;&quot;&gt;9&lt;/font&gt;" style="text;html=1;strokeColor=none;fillColor=none;align=center;verticalAlign=middle;whiteSpace=wrap;rounded=0;" parent="aqVbvqTBp94p9ZoE7eEu-1" vertex="1">
          <mxGeometry x="610" y="600" width="30" height="30" as="geometry" />
        </mxCell>
        <mxCell id="MMa_PPsF2fyLMhipfHgI-21" value="&lt;font style=&quot;font-size: 24px;&quot;&gt;0&lt;/font&gt;" style="text;html=1;strokeColor=none;fillColor=none;align=center;verticalAlign=middle;whiteSpace=wrap;rounded=0;" parent="aqVbvqTBp94p9ZoE7eEu-1" vertex="1">
          <mxGeometry x="640" y="600" width="30" height="30" as="geometry" />
        </mxCell>
        <mxCell id="MMa_PPsF2fyLMhipfHgI-22" value="&lt;span style=&quot;font-size: 24px;&quot;&gt;1&lt;/span&gt;" style="text;html=1;strokeColor=none;fillColor=none;align=center;verticalAlign=middle;whiteSpace=wrap;rounded=0;" parent="aqVbvqTBp94p9ZoE7eEu-1" vertex="1">
          <mxGeometry x="670" y="600" width="30" height="30" as="geometry" />
        </mxCell>
        <mxCell id="MMa_PPsF2fyLMhipfHgI-23" value="&lt;font style=&quot;font-size: 24px;&quot;&gt;3&lt;/font&gt;" style="text;html=1;strokeColor=none;fillColor=none;align=center;verticalAlign=middle;whiteSpace=wrap;rounded=0;" parent="aqVbvqTBp94p9ZoE7eEu-1" vertex="1">
          <mxGeometry x="730" y="600" width="30" height="30" as="geometry" />
        </mxCell>
        <mxCell id="MMa_PPsF2fyLMhipfHgI-24" value="&lt;font style=&quot;font-size: 24px;&quot;&gt;2&lt;/font&gt;" style="text;html=1;strokeColor=none;fillColor=none;align=center;verticalAlign=middle;whiteSpace=wrap;rounded=0;" parent="aqVbvqTBp94p9ZoE7eEu-1" vertex="1">
          <mxGeometry x="700" y="600" width="30" height="30" as="geometry" />
        </mxCell>
        <mxCell id="MMa_PPsF2fyLMhipfHgI-25" value="&lt;font style=&quot;font-size: 24px;&quot;&gt;4&lt;/font&gt;" style="text;html=1;strokeColor=none;fillColor=none;align=center;verticalAlign=middle;whiteSpace=wrap;rounded=0;" parent="aqVbvqTBp94p9ZoE7eEu-1" vertex="1">
          <mxGeometry x="760" y="600" width="30" height="30" as="geometry" />
        </mxCell>
        <mxCell id="MMa_PPsF2fyLMhipfHgI-26" value="&lt;font style=&quot;font-size: 24px;&quot;&gt;5&lt;/font&gt;" style="text;html=1;strokeColor=none;fillColor=none;align=center;verticalAlign=middle;whiteSpace=wrap;rounded=0;" parent="aqVbvqTBp94p9ZoE7eEu-1" vertex="1">
          <mxGeometry x="790" y="600" width="30" height="30" as="geometry" />
        </mxCell>
        <mxCell id="MMa_PPsF2fyLMhipfHgI-27" value="&lt;font style=&quot;font-size: 24px;&quot;&gt;6&lt;/font&gt;" style="text;html=1;strokeColor=none;fillColor=none;align=center;verticalAlign=middle;whiteSpace=wrap;rounded=0;" parent="aqVbvqTBp94p9ZoE7eEu-1" vertex="1">
          <mxGeometry x="820" y="600" width="30" height="30" as="geometry" />
        </mxCell>
        <mxCell id="MMa_PPsF2fyLMhipfHgI-28" value="&lt;font style=&quot;font-size: 24px;&quot;&gt;7&lt;/font&gt;" style="text;html=1;strokeColor=none;fillColor=none;align=center;verticalAlign=middle;whiteSpace=wrap;rounded=0;" parent="aqVbvqTBp94p9ZoE7eEu-1" vertex="1">
          <mxGeometry x="850" y="600" width="30" height="30" as="geometry" />
        </mxCell>
        <mxCell id="MMa_PPsF2fyLMhipfHgI-29" value="&lt;font style=&quot;font-size: 24px;&quot;&gt;8&lt;/font&gt;" style="text;html=1;strokeColor=none;fillColor=none;align=center;verticalAlign=middle;whiteSpace=wrap;rounded=0;" parent="aqVbvqTBp94p9ZoE7eEu-1" vertex="1">
          <mxGeometry x="880" y="600" width="30" height="30" as="geometry" />
        </mxCell>
        <mxCell id="MMa_PPsF2fyLMhipfHgI-30" value="&lt;font style=&quot;font-size: 24px;&quot;&gt;9&lt;/font&gt;" style="text;html=1;strokeColor=none;fillColor=none;align=center;verticalAlign=middle;whiteSpace=wrap;rounded=0;" parent="aqVbvqTBp94p9ZoE7eEu-1" vertex="1">
          <mxGeometry x="910" y="600" width="30" height="30" as="geometry" />
        </mxCell>
        <mxCell id="MMa_PPsF2fyLMhipfHgI-31" value="&lt;font style=&quot;font-size: 24px;&quot;&gt;0&lt;/font&gt;" style="text;html=1;strokeColor=none;fillColor=none;align=center;verticalAlign=middle;whiteSpace=wrap;rounded=0;" parent="aqVbvqTBp94p9ZoE7eEu-1" vertex="1">
          <mxGeometry x="940" y="600" width="30" height="30" as="geometry" />
        </mxCell>
        <mxCell id="MMa_PPsF2fyLMhipfHgI-32" value="&lt;span style=&quot;font-size: 24px;&quot;&gt;1&lt;/span&gt;" style="text;html=1;strokeColor=none;fillColor=none;align=center;verticalAlign=middle;whiteSpace=wrap;rounded=0;" parent="aqVbvqTBp94p9ZoE7eEu-1" vertex="1">
          <mxGeometry x="970" y="600" width="30" height="30" as="geometry" />
        </mxCell>
        <mxCell id="MMa_PPsF2fyLMhipfHgI-33" value="&lt;font style=&quot;font-size: 24px;&quot;&gt;3&lt;/font&gt;" style="text;html=1;strokeColor=none;fillColor=none;align=center;verticalAlign=middle;whiteSpace=wrap;rounded=0;" parent="aqVbvqTBp94p9ZoE7eEu-1" vertex="1">
          <mxGeometry x="1030" y="600" width="30" height="30" as="geometry" />
        </mxCell>
        <mxCell id="MMa_PPsF2fyLMhipfHgI-34" value="&lt;font style=&quot;font-size: 24px;&quot;&gt;2&lt;/font&gt;" style="text;html=1;strokeColor=none;fillColor=none;align=center;verticalAlign=middle;whiteSpace=wrap;rounded=0;" parent="aqVbvqTBp94p9ZoE7eEu-1" vertex="1">
          <mxGeometry x="1000" y="600" width="30" height="30" as="geometry" />
        </mxCell>
        <mxCell id="MMa_PPsF2fyLMhipfHgI-35" value="&lt;font style=&quot;font-size: 24px;&quot;&gt;4&lt;/font&gt;" style="text;html=1;strokeColor=none;fillColor=none;align=center;verticalAlign=middle;whiteSpace=wrap;rounded=0;" parent="aqVbvqTBp94p9ZoE7eEu-1" vertex="1">
          <mxGeometry x="1060" y="600" width="30" height="30" as="geometry" />
        </mxCell>
        <mxCell id="MMa_PPsF2fyLMhipfHgI-36" value="&lt;font style=&quot;font-size: 24px;&quot;&gt;5&lt;/font&gt;" style="text;html=1;strokeColor=none;fillColor=none;align=center;verticalAlign=middle;whiteSpace=wrap;rounded=0;" parent="aqVbvqTBp94p9ZoE7eEu-1" vertex="1">
          <mxGeometry x="1090" y="600" width="30" height="30" as="geometry" />
        </mxCell>
        <mxCell id="MMa_PPsF2fyLMhipfHgI-37" value="&lt;font style=&quot;font-size: 24px;&quot;&gt;6&lt;/font&gt;" style="text;html=1;strokeColor=none;fillColor=none;align=center;verticalAlign=middle;whiteSpace=wrap;rounded=0;" parent="aqVbvqTBp94p9ZoE7eEu-1" vertex="1">
          <mxGeometry x="1120" y="600" width="30" height="30" as="geometry" />
        </mxCell>
        <mxCell id="MMa_PPsF2fyLMhipfHgI-38" value="&lt;font style=&quot;font-size: 24px;&quot;&gt;7&lt;/font&gt;" style="text;html=1;strokeColor=none;fillColor=none;align=center;verticalAlign=middle;whiteSpace=wrap;rounded=0;" parent="aqVbvqTBp94p9ZoE7eEu-1" vertex="1">
          <mxGeometry x="1150" y="600" width="30" height="30" as="geometry" />
        </mxCell>
        <mxCell id="MMa_PPsF2fyLMhipfHgI-39" value="&lt;font style=&quot;font-size: 24px;&quot;&gt;8&lt;/font&gt;" style="text;html=1;strokeColor=none;fillColor=none;align=center;verticalAlign=middle;whiteSpace=wrap;rounded=0;" parent="aqVbvqTBp94p9ZoE7eEu-1" vertex="1">
          <mxGeometry x="1180" y="600" width="30" height="30" as="geometry" />
        </mxCell>
        <mxCell id="MMa_PPsF2fyLMhipfHgI-40" value="&lt;font style=&quot;font-size: 24px;&quot;&gt;9&lt;/font&gt;" style="text;html=1;strokeColor=none;fillColor=none;align=center;verticalAlign=middle;whiteSpace=wrap;rounded=0;" parent="aqVbvqTBp94p9ZoE7eEu-1" vertex="1">
          <mxGeometry x="1210" y="600" width="30" height="30" as="geometry" />
        </mxCell>
        <mxCell id="MMa_PPsF2fyLMhipfHgI-42" value="" style="rounded=0;whiteSpace=wrap;html=1;strokeColor=none;fillColor=#fce5cd;" parent="aqVbvqTBp94p9ZoE7eEu-1" vertex="1">
          <mxGeometry x="1240" y="560" width="300" height="100" as="geometry" />
        </mxCell>
        <mxCell id="MMa_PPsF2fyLMhipfHgI-43" value="" style="endArrow=none;html=1;rounded=0;strokeWidth=2;strokeColor=#000099;" parent="aqVbvqTBp94p9ZoE7eEu-1" edge="1">
          <mxGeometry width="50" height="50" relative="1" as="geometry">
            <mxPoint x="1240" y="630" as="sourcePoint" />
            <mxPoint x="1240" y="570" as="targetPoint" />
          </mxGeometry>
        </mxCell>
        <mxCell id="MMa_PPsF2fyLMhipfHgI-44" value="" style="endArrow=none;html=1;rounded=0;strokeWidth=2;strokeColor=#000099;" parent="aqVbvqTBp94p9ZoE7eEu-1" edge="1">
          <mxGeometry width="50" height="50" relative="1" as="geometry">
            <mxPoint x="1270" y="620" as="sourcePoint" />
            <mxPoint x="1270" y="580" as="targetPoint" />
          </mxGeometry>
        </mxCell>
        <mxCell id="MMa_PPsF2fyLMhipfHgI-45" value="" style="endArrow=none;html=1;rounded=0;strokeWidth=2;strokeColor=#000099;" parent="aqVbvqTBp94p9ZoE7eEu-1" edge="1">
          <mxGeometry width="50" height="50" relative="1" as="geometry">
            <mxPoint x="1300" y="620" as="sourcePoint" />
            <mxPoint x="1300" y="580" as="targetPoint" />
          </mxGeometry>
        </mxCell>
        <mxCell id="MMa_PPsF2fyLMhipfHgI-46" value="" style="endArrow=none;html=1;rounded=0;strokeWidth=2;strokeColor=#000099;" parent="aqVbvqTBp94p9ZoE7eEu-1" edge="1">
          <mxGeometry width="50" height="50" relative="1" as="geometry">
            <mxPoint x="1330" y="620" as="sourcePoint" />
            <mxPoint x="1330" y="580" as="targetPoint" />
          </mxGeometry>
        </mxCell>
        <mxCell id="MMa_PPsF2fyLMhipfHgI-47" value="" style="endArrow=none;html=1;rounded=0;strokeWidth=2;strokeColor=#000099;" parent="aqVbvqTBp94p9ZoE7eEu-1" edge="1">
          <mxGeometry width="50" height="50" relative="1" as="geometry">
            <mxPoint x="1360" y="620" as="sourcePoint" />
            <mxPoint x="1360" y="580" as="targetPoint" />
          </mxGeometry>
        </mxCell>
        <mxCell id="MMa_PPsF2fyLMhipfHgI-48" value="" style="endArrow=none;html=1;rounded=0;strokeWidth=2;strokeColor=#000099;" parent="aqVbvqTBp94p9ZoE7eEu-1" edge="1">
          <mxGeometry width="50" height="50" relative="1" as="geometry">
            <mxPoint x="1390" y="620" as="sourcePoint" />
            <mxPoint x="1390" y="580" as="targetPoint" />
          </mxGeometry>
        </mxCell>
        <mxCell id="MMa_PPsF2fyLMhipfHgI-49" value="" style="endArrow=none;html=1;rounded=0;strokeWidth=2;strokeColor=#000099;" parent="aqVbvqTBp94p9ZoE7eEu-1" edge="1">
          <mxGeometry width="50" height="50" relative="1" as="geometry">
            <mxPoint x="1420" y="620" as="sourcePoint" />
            <mxPoint x="1420" y="580" as="targetPoint" />
          </mxGeometry>
        </mxCell>
        <mxCell id="MMa_PPsF2fyLMhipfHgI-50" value="" style="endArrow=none;html=1;rounded=0;strokeWidth=2;strokeColor=#000099;" parent="aqVbvqTBp94p9ZoE7eEu-1" edge="1">
          <mxGeometry width="50" height="50" relative="1" as="geometry">
            <mxPoint x="1450" y="620" as="sourcePoint" />
            <mxPoint x="1450" y="580" as="targetPoint" />
          </mxGeometry>
        </mxCell>
        <mxCell id="MMa_PPsF2fyLMhipfHgI-51" value="" style="endArrow=none;html=1;rounded=0;strokeWidth=2;strokeColor=#000099;" parent="aqVbvqTBp94p9ZoE7eEu-1" edge="1">
          <mxGeometry width="50" height="50" relative="1" as="geometry">
            <mxPoint x="1480" y="620" as="sourcePoint" />
            <mxPoint x="1480" y="580" as="targetPoint" />
          </mxGeometry>
        </mxCell>
        <mxCell id="MMa_PPsF2fyLMhipfHgI-52" value="" style="endArrow=none;html=1;rounded=0;strokeWidth=2;strokeColor=#000099;" parent="aqVbvqTBp94p9ZoE7eEu-1" edge="1">
          <mxGeometry width="50" height="50" relative="1" as="geometry">
            <mxPoint x="1510" y="620" as="sourcePoint" />
            <mxPoint x="1510" y="580" as="targetPoint" />
          </mxGeometry>
        </mxCell>
        <mxCell id="MMa_PPsF2fyLMhipfHgI-53" value="&lt;font style=&quot;font-size: 24px;&quot;&gt;0&lt;/font&gt;" style="text;html=1;strokeColor=none;fillColor=none;align=center;verticalAlign=middle;whiteSpace=wrap;rounded=0;" parent="aqVbvqTBp94p9ZoE7eEu-1" vertex="1">
          <mxGeometry x="1240" y="600" width="30" height="30" as="geometry" />
        </mxCell>
        <mxCell id="MMa_PPsF2fyLMhipfHgI-54" value="&lt;span style=&quot;font-size: 24px;&quot;&gt;1&lt;/span&gt;" style="text;html=1;strokeColor=none;fillColor=none;align=center;verticalAlign=middle;whiteSpace=wrap;rounded=0;" parent="aqVbvqTBp94p9ZoE7eEu-1" vertex="1">
          <mxGeometry x="1270" y="600" width="30" height="30" as="geometry" />
        </mxCell>
        <mxCell id="MMa_PPsF2fyLMhipfHgI-55" value="&lt;font style=&quot;font-size: 24px;&quot;&gt;3&lt;/font&gt;" style="text;html=1;strokeColor=none;fillColor=none;align=center;verticalAlign=middle;whiteSpace=wrap;rounded=0;" parent="aqVbvqTBp94p9ZoE7eEu-1" vertex="1">
          <mxGeometry x="1330" y="600" width="30" height="30" as="geometry" />
        </mxCell>
        <mxCell id="MMa_PPsF2fyLMhipfHgI-56" value="&lt;font style=&quot;font-size: 24px;&quot;&gt;2&lt;/font&gt;" style="text;html=1;strokeColor=none;fillColor=none;align=center;verticalAlign=middle;whiteSpace=wrap;rounded=0;" parent="aqVbvqTBp94p9ZoE7eEu-1" vertex="1">
          <mxGeometry x="1300" y="600" width="30" height="30" as="geometry" />
        </mxCell>
        <mxCell id="MMa_PPsF2fyLMhipfHgI-57" value="&lt;font style=&quot;font-size: 24px;&quot;&gt;4&lt;/font&gt;" style="text;html=1;strokeColor=none;fillColor=none;align=center;verticalAlign=middle;whiteSpace=wrap;rounded=0;" parent="aqVbvqTBp94p9ZoE7eEu-1" vertex="1">
          <mxGeometry x="1360" y="600" width="30" height="30" as="geometry" />
        </mxCell>
        <mxCell id="MMa_PPsF2fyLMhipfHgI-58" value="&lt;font style=&quot;font-size: 24px;&quot;&gt;5&lt;/font&gt;" style="text;html=1;strokeColor=none;fillColor=none;align=center;verticalAlign=middle;whiteSpace=wrap;rounded=0;" parent="aqVbvqTBp94p9ZoE7eEu-1" vertex="1">
          <mxGeometry x="1390" y="600" width="30" height="30" as="geometry" />
        </mxCell>
        <mxCell id="MMa_PPsF2fyLMhipfHgI-59" value="&lt;font style=&quot;font-size: 24px;&quot;&gt;6&lt;/font&gt;" style="text;html=1;strokeColor=none;fillColor=none;align=center;verticalAlign=middle;whiteSpace=wrap;rounded=0;" parent="aqVbvqTBp94p9ZoE7eEu-1" vertex="1">
          <mxGeometry x="1420" y="600" width="30" height="30" as="geometry" />
        </mxCell>
        <mxCell id="MMa_PPsF2fyLMhipfHgI-60" value="&lt;font style=&quot;font-size: 24px;&quot;&gt;7&lt;/font&gt;" style="text;html=1;strokeColor=none;fillColor=none;align=center;verticalAlign=middle;whiteSpace=wrap;rounded=0;" parent="aqVbvqTBp94p9ZoE7eEu-1" vertex="1">
          <mxGeometry x="1450" y="600" width="30" height="30" as="geometry" />
        </mxCell>
        <mxCell id="MMa_PPsF2fyLMhipfHgI-61" value="&lt;font style=&quot;font-size: 24px;&quot;&gt;8&lt;/font&gt;" style="text;html=1;strokeColor=none;fillColor=none;align=center;verticalAlign=middle;whiteSpace=wrap;rounded=0;" parent="aqVbvqTBp94p9ZoE7eEu-1" vertex="1">
          <mxGeometry x="1480" y="600" width="30" height="30" as="geometry" />
        </mxCell>
        <mxCell id="MMa_PPsF2fyLMhipfHgI-62" value="&lt;font style=&quot;font-size: 24px;&quot;&gt;9&lt;/font&gt;" style="text;html=1;strokeColor=none;fillColor=none;align=center;verticalAlign=middle;whiteSpace=wrap;rounded=0;" parent="aqVbvqTBp94p9ZoE7eEu-1" vertex="1">
          <mxGeometry x="1510" y="600" width="30" height="30" as="geometry" />
        </mxCell>
        <mxCell id="MMa_PPsF2fyLMhipfHgI-64" value="&lt;font style=&quot;font-size: 24px;&quot;&gt;2000s&lt;/font&gt;" style="text;html=1;strokeColor=none;fillColor=none;align=center;verticalAlign=middle;whiteSpace=wrap;rounded=0;" parent="aqVbvqTBp94p9ZoE7eEu-1" vertex="1">
          <mxGeometry x="1240" y="630" width="300" height="30" as="geometry" />
        </mxCell>
        <mxCell id="MMa_PPsF2fyLMhipfHgI-65" value="&lt;font style=&quot;font-size: 24px;&quot;&gt;NIST SP 800-33&lt;/font&gt;&lt;font style=&quot;border-color: var(--border-color);&quot; color=&quot;#7f00ff&quot;&gt;&amp;nbsp;&lt;/font&gt;&lt;sup style=&quot;border-color: var(--border-color);&quot;&gt;&lt;font style=&quot;border-color: var(--border-color); font-size: 15px;&quot; color=&quot;#990000&quot;&gt;7&lt;/font&gt;&lt;/sup&gt;" style="text;html=1;strokeColor=none;fillColor=none;align=left;verticalAlign=middle;whiteSpace=wrap;rounded=0;rotation=315;" parent="aqVbvqTBp94p9ZoE7eEu-1" vertex="1">
          <mxGeometry x="1259" y="465" width="193.64" height="30" as="geometry" />
        </mxCell>
        <mxCell id="MMa_PPsF2fyLMhipfHgI-68" value="&lt;font style=&quot;font-size: 18px;&quot;&gt;&lt;font color=&quot;#990000&quot;&gt;&lt;sup&gt;3&lt;/sup&gt;&lt;/font&gt; Security and Privacy in Computer Systems&lt;br&gt;&lt;/font&gt;" style="text;html=1;strokeColor=none;fillColor=none;align=left;verticalAlign=middle;whiteSpace=wrap;rounded=0;labelBackgroundColor=none;" parent="aqVbvqTBp94p9ZoE7eEu-1" vertex="1">
          <mxGeometry x="40" y="810" width="540" height="30" as="geometry" />
        </mxCell>
        <mxCell id="MMa_PPsF2fyLMhipfHgI-69" value="&lt;font style=&quot;font-size: 18px;&quot;&gt;&lt;font style=&quot;border-color: var(--border-color);&quot; color=&quot;#990000&quot;&gt;&lt;sup style=&quot;border-color: var(--border-color);&quot;&gt;4&lt;/sup&gt;&lt;/font&gt;&amp;nbsp;On Distributed Communication: IX. Security, Secrecy, and Tamper-free considerations&lt;br&gt;&lt;/font&gt;" style="text;html=1;strokeColor=none;fillColor=none;align=left;verticalAlign=middle;whiteSpace=wrap;rounded=0;labelBackgroundColor=none;" parent="aqVbvqTBp94p9ZoE7eEu-1" vertex="1">
          <mxGeometry x="40" y="840" width="710" height="30" as="geometry" />
        </mxCell>
        <mxCell id="MMa_PPsF2fyLMhipfHgI-70" value="&lt;font style=&quot;font-size: 18px;&quot;&gt;&lt;font color=&quot;#990000&quot;&gt;&lt;sup&gt;9&lt;/sup&gt;&lt;/font&gt; The Security Development Lifecycle&lt;br&gt;&lt;/font&gt;" style="text;html=1;strokeColor=none;fillColor=none;align=left;verticalAlign=middle;whiteSpace=wrap;rounded=0;labelBackgroundColor=none;" parent="aqVbvqTBp94p9ZoE7eEu-1" vertex="1">
          <mxGeometry x="960.78" y="750" width="720" height="30" as="geometry" />
        </mxCell>
        <mxCell id="MMa_PPsF2fyLMhipfHgI-71" value="&lt;font style=&quot;font-size: 18px;&quot;&gt;&lt;font style=&quot;border-color: var(--border-color);&quot; color=&quot;#990000&quot;&gt;&lt;sup style=&quot;border-color: var(--border-color);&quot;&gt;8&lt;/sup&gt;&lt;/font&gt;&amp;nbsp;44 U.S.C section 2542. Definitions&lt;br&gt;&lt;/font&gt;" style="text;html=1;strokeColor=none;fillColor=none;align=left;verticalAlign=middle;whiteSpace=wrap;rounded=0;labelBackgroundColor=none;" parent="aqVbvqTBp94p9ZoE7eEu-1" vertex="1">
          <mxGeometry x="40" y="960" width="720" height="30" as="geometry" />
        </mxCell>
        <mxCell id="MMa_PPsF2fyLMhipfHgI-72" value="&lt;font style=&quot;font-size: 18px;&quot;&gt;&lt;font color=&quot;#990000&quot;&gt;&lt;sup&gt;5&lt;/sup&gt;&lt;/font&gt; Department of Defense Trusted Computer System Evaluation Criteria&lt;br&gt;&lt;/font&gt;" style="text;html=1;strokeColor=none;fillColor=none;align=left;verticalAlign=middle;whiteSpace=wrap;rounded=0;labelBackgroundColor=none;" parent="aqVbvqTBp94p9ZoE7eEu-1" vertex="1">
          <mxGeometry x="40" y="870" width="580" height="30" as="geometry" />
        </mxCell>
        <mxCell id="MMa_PPsF2fyLMhipfHgI-73" value="&lt;font style=&quot;font-size: 18px;&quot;&gt;&lt;font style=&quot;border-color: var(--border-color);&quot; color=&quot;#990000&quot;&gt;&lt;sup style=&quot;border-color: var(--border-color);&quot;&gt;7&lt;/sup&gt;&lt;/font&gt;&amp;nbsp;NIST SP 800-33 - Underlying Technical Models for Information Technology Security&lt;br&gt;&lt;/font&gt;" style="text;html=1;strokeColor=none;fillColor=none;align=left;verticalAlign=middle;whiteSpace=wrap;rounded=0;labelBackgroundColor=none;" parent="aqVbvqTBp94p9ZoE7eEu-1" vertex="1">
          <mxGeometry x="40" y="930" width="720" height="30" as="geometry" />
        </mxCell>
        <mxCell id="MMa_PPsF2fyLMhipfHgI-74" value="" style="rounded=0;whiteSpace=wrap;html=1;strokeColor=none;fillColor=#b6d7a8;" parent="aqVbvqTBp94p9ZoE7eEu-1" vertex="1">
          <mxGeometry x="1540" y="560" width="300" height="100" as="geometry" />
        </mxCell>
        <mxCell id="MMa_PPsF2fyLMhipfHgI-75" value="" style="endArrow=none;html=1;rounded=0;strokeWidth=2;strokeColor=#000099;" parent="aqVbvqTBp94p9ZoE7eEu-1" edge="1">
          <mxGeometry width="50" height="50" relative="1" as="geometry">
            <mxPoint x="1600" y="620" as="sourcePoint" />
            <mxPoint x="1600" y="580" as="targetPoint" />
          </mxGeometry>
        </mxCell>
        <mxCell id="MMa_PPsF2fyLMhipfHgI-76" value="" style="endArrow=none;html=1;rounded=0;strokeWidth=2;strokeColor=#000099;" parent="aqVbvqTBp94p9ZoE7eEu-1" edge="1">
          <mxGeometry width="50" height="50" relative="1" as="geometry">
            <mxPoint x="1570" y="620" as="sourcePoint" />
            <mxPoint x="1570" y="580" as="targetPoint" />
          </mxGeometry>
        </mxCell>
        <mxCell id="MMa_PPsF2fyLMhipfHgI-77" value="" style="endArrow=none;html=1;rounded=0;strokeWidth=2;strokeColor=#000099;" parent="aqVbvqTBp94p9ZoE7eEu-1" edge="1">
          <mxGeometry width="50" height="50" relative="1" as="geometry">
            <mxPoint x="1540" y="630" as="sourcePoint" />
            <mxPoint x="1540" y="570" as="targetPoint" />
          </mxGeometry>
        </mxCell>
        <mxCell id="MMa_PPsF2fyLMhipfHgI-78" value="" style="endArrow=none;html=1;rounded=0;strokeWidth=2;strokeColor=#000099;" parent="aqVbvqTBp94p9ZoE7eEu-1" edge="1">
          <mxGeometry width="50" height="50" relative="1" as="geometry">
            <mxPoint x="1630" y="620" as="sourcePoint" />
            <mxPoint x="1630" y="580" as="targetPoint" />
          </mxGeometry>
        </mxCell>
        <mxCell id="MMa_PPsF2fyLMhipfHgI-79" value="" style="endArrow=none;html=1;rounded=0;strokeWidth=2;strokeColor=#000099;" parent="aqVbvqTBp94p9ZoE7eEu-1" edge="1">
          <mxGeometry width="50" height="50" relative="1" as="geometry">
            <mxPoint x="1660" y="620" as="sourcePoint" />
            <mxPoint x="1660" y="580" as="targetPoint" />
          </mxGeometry>
        </mxCell>
        <mxCell id="MMa_PPsF2fyLMhipfHgI-80" value="" style="endArrow=none;html=1;rounded=0;strokeWidth=2;strokeColor=#000099;" parent="aqVbvqTBp94p9ZoE7eEu-1" edge="1">
          <mxGeometry width="50" height="50" relative="1" as="geometry">
            <mxPoint x="1690" y="620" as="sourcePoint" />
            <mxPoint x="1690" y="580" as="targetPoint" />
          </mxGeometry>
        </mxCell>
        <mxCell id="MMa_PPsF2fyLMhipfHgI-81" value="" style="endArrow=none;html=1;rounded=0;strokeWidth=2;strokeColor=#000099;" parent="aqVbvqTBp94p9ZoE7eEu-1" edge="1">
          <mxGeometry width="50" height="50" relative="1" as="geometry">
            <mxPoint x="1720" y="620" as="sourcePoint" />
            <mxPoint x="1720" y="580" as="targetPoint" />
          </mxGeometry>
        </mxCell>
        <mxCell id="MMa_PPsF2fyLMhipfHgI-82" value="" style="endArrow=none;html=1;rounded=0;strokeWidth=2;strokeColor=#000099;" parent="aqVbvqTBp94p9ZoE7eEu-1" edge="1">
          <mxGeometry width="50" height="50" relative="1" as="geometry">
            <mxPoint x="1750" y="620" as="sourcePoint" />
            <mxPoint x="1750" y="580" as="targetPoint" />
          </mxGeometry>
        </mxCell>
        <mxCell id="MMa_PPsF2fyLMhipfHgI-83" value="" style="endArrow=none;html=1;rounded=0;strokeWidth=2;strokeColor=#000099;" parent="aqVbvqTBp94p9ZoE7eEu-1" edge="1">
          <mxGeometry width="50" height="50" relative="1" as="geometry">
            <mxPoint x="1780" y="620" as="sourcePoint" />
            <mxPoint x="1780" y="580" as="targetPoint" />
          </mxGeometry>
        </mxCell>
        <mxCell id="MMa_PPsF2fyLMhipfHgI-84" value="" style="endArrow=none;html=1;rounded=0;strokeWidth=2;strokeColor=#000099;" parent="aqVbvqTBp94p9ZoE7eEu-1" edge="1">
          <mxGeometry width="50" height="50" relative="1" as="geometry">
            <mxPoint x="1810" y="620" as="sourcePoint" />
            <mxPoint x="1810" y="580" as="targetPoint" />
          </mxGeometry>
        </mxCell>
        <mxCell id="MMa_PPsF2fyLMhipfHgI-85" value="" style="endArrow=none;html=1;rounded=0;strokeWidth=2;strokeColor=#000099;" parent="aqVbvqTBp94p9ZoE7eEu-1" edge="1">
          <mxGeometry width="50" height="50" relative="1" as="geometry">
            <mxPoint x="1840" y="630" as="sourcePoint" />
            <mxPoint x="1840" y="570" as="targetPoint" />
          </mxGeometry>
        </mxCell>
        <mxCell id="MMa_PPsF2fyLMhipfHgI-86" value="&lt;font style=&quot;font-size: 24px;&quot;&gt;2010s&lt;/font&gt;" style="text;html=1;strokeColor=none;fillColor=none;align=center;verticalAlign=middle;whiteSpace=wrap;rounded=0;" parent="aqVbvqTBp94p9ZoE7eEu-1" vertex="1">
          <mxGeometry x="1540" y="630" width="300" height="30" as="geometry" />
        </mxCell>
        <mxCell id="MMa_PPsF2fyLMhipfHgI-87" value="&lt;font style=&quot;font-size: 24px;&quot;&gt;0&lt;/font&gt;" style="text;html=1;strokeColor=none;fillColor=none;align=center;verticalAlign=middle;whiteSpace=wrap;rounded=0;" parent="aqVbvqTBp94p9ZoE7eEu-1" vertex="1">
          <mxGeometry x="1540" y="600" width="30" height="30" as="geometry" />
        </mxCell>
        <mxCell id="MMa_PPsF2fyLMhipfHgI-88" value="&lt;span style=&quot;font-size: 24px;&quot;&gt;1&lt;/span&gt;" style="text;html=1;strokeColor=none;fillColor=none;align=center;verticalAlign=middle;whiteSpace=wrap;rounded=0;" parent="aqVbvqTBp94p9ZoE7eEu-1" vertex="1">
          <mxGeometry x="1570" y="600" width="30" height="30" as="geometry" />
        </mxCell>
        <mxCell id="MMa_PPsF2fyLMhipfHgI-89" value="&lt;font style=&quot;font-size: 24px;&quot;&gt;3&lt;/font&gt;" style="text;html=1;strokeColor=none;fillColor=none;align=center;verticalAlign=middle;whiteSpace=wrap;rounded=0;" parent="aqVbvqTBp94p9ZoE7eEu-1" vertex="1">
          <mxGeometry x="1630" y="600" width="30" height="30" as="geometry" />
        </mxCell>
        <mxCell id="MMa_PPsF2fyLMhipfHgI-90" value="&lt;font style=&quot;font-size: 24px;&quot;&gt;2&lt;/font&gt;" style="text;html=1;strokeColor=none;fillColor=none;align=center;verticalAlign=middle;whiteSpace=wrap;rounded=0;" parent="aqVbvqTBp94p9ZoE7eEu-1" vertex="1">
          <mxGeometry x="1600" y="600" width="30" height="30" as="geometry" />
        </mxCell>
        <mxCell id="MMa_PPsF2fyLMhipfHgI-91" value="&lt;font style=&quot;font-size: 24px;&quot;&gt;4&lt;/font&gt;" style="text;html=1;strokeColor=none;fillColor=none;align=center;verticalAlign=middle;whiteSpace=wrap;rounded=0;" parent="aqVbvqTBp94p9ZoE7eEu-1" vertex="1">
          <mxGeometry x="1660" y="600" width="30" height="30" as="geometry" />
        </mxCell>
        <mxCell id="MMa_PPsF2fyLMhipfHgI-92" value="&lt;font style=&quot;font-size: 24px;&quot;&gt;5&lt;/font&gt;" style="text;html=1;strokeColor=none;fillColor=none;align=center;verticalAlign=middle;whiteSpace=wrap;rounded=0;" parent="aqVbvqTBp94p9ZoE7eEu-1" vertex="1">
          <mxGeometry x="1690" y="600" width="30" height="30" as="geometry" />
        </mxCell>
        <mxCell id="MMa_PPsF2fyLMhipfHgI-93" value="&lt;font style=&quot;font-size: 24px;&quot;&gt;6&lt;/font&gt;" style="text;html=1;strokeColor=none;fillColor=none;align=center;verticalAlign=middle;whiteSpace=wrap;rounded=0;" parent="aqVbvqTBp94p9ZoE7eEu-1" vertex="1">
          <mxGeometry x="1720" y="600" width="30" height="30" as="geometry" />
        </mxCell>
        <mxCell id="MMa_PPsF2fyLMhipfHgI-94" value="&lt;font style=&quot;font-size: 24px;&quot;&gt;7&lt;/font&gt;" style="text;html=1;strokeColor=none;fillColor=none;align=center;verticalAlign=middle;whiteSpace=wrap;rounded=0;" parent="aqVbvqTBp94p9ZoE7eEu-1" vertex="1">
          <mxGeometry x="1750" y="600" width="30" height="30" as="geometry" />
        </mxCell>
        <mxCell id="MMa_PPsF2fyLMhipfHgI-95" value="&lt;font style=&quot;font-size: 24px;&quot;&gt;8&lt;/font&gt;" style="text;html=1;strokeColor=none;fillColor=none;align=center;verticalAlign=middle;whiteSpace=wrap;rounded=0;" parent="aqVbvqTBp94p9ZoE7eEu-1" vertex="1">
          <mxGeometry x="1780" y="600" width="30" height="30" as="geometry" />
        </mxCell>
        <mxCell id="MMa_PPsF2fyLMhipfHgI-96" value="&lt;font style=&quot;font-size: 24px;&quot;&gt;9&lt;/font&gt;" style="text;html=1;strokeColor=none;fillColor=none;align=center;verticalAlign=middle;whiteSpace=wrap;rounded=0;" parent="aqVbvqTBp94p9ZoE7eEu-1" vertex="1">
          <mxGeometry x="1810" y="600" width="30" height="30" as="geometry" />
        </mxCell>
        <mxCell id="aqVbvqTBp94p9ZoE7eEu-3" value="" style="endArrow=classic;html=1;rounded=0;strokeWidth=2;strokeColor=#000099;exitX=0;exitY=0;exitDx=0;exitDy=0;" parent="aqVbvqTBp94p9ZoE7eEu-1" source="aqVbvqTBp94p9ZoE7eEu-29" edge="1">
          <mxGeometry width="50" height="50" relative="1" as="geometry">
            <mxPoint x="250" y="600" as="sourcePoint" />
            <mxPoint x="1880" y="600" as="targetPoint" />
          </mxGeometry>
        </mxCell>
        <mxCell id="MMa_PPsF2fyLMhipfHgI-122" value="&lt;font style=&quot;font-size: 24px;&quot;&gt;Yu&lt;font color=&quot;#7f00ff&quot; style=&quot;border-color: var(--border-color); font-size: 12px;&quot;&gt;&amp;nbsp;&lt;/font&gt;&lt;sup style=&quot;border-color: var(--border-color);&quot;&gt;&lt;font style=&quot;border-color: var(--border-color); font-size: 15px;&quot; color=&quot;#990000&quot;&gt;15&lt;/font&gt;&lt;/sup&gt;&lt;br&gt;&lt;/font&gt;" style="text;html=1;strokeColor=none;fillColor=none;align=left;verticalAlign=middle;whiteSpace=wrap;rounded=0;rotation=315;" parent="aqVbvqTBp94p9ZoE7eEu-1" vertex="1">
          <mxGeometry x="1817.81" y="511.22" width="62" height="30" as="geometry" />
        </mxCell>
        <mxCell id="MMa_PPsF2fyLMhipfHgI-124" value="&lt;font style=&quot;font-size: 24px;&quot;&gt;Firesmith&lt;font color=&quot;#7f00ff&quot; style=&quot;border-color: var(--border-color); font-size: 12px;&quot;&gt;&amp;nbsp;&lt;/font&gt;&lt;sup style=&quot;border-color: var(--border-color);&quot;&gt;&lt;font style=&quot;border-color: var(--border-color); font-size: 15px;&quot; color=&quot;#990000&quot;&gt;11&lt;/font&gt;&lt;/sup&gt;&lt;br&gt;&lt;/font&gt;" style="text;html=1;strokeColor=none;fillColor=none;align=left;verticalAlign=middle;whiteSpace=wrap;rounded=0;rotation=315;" parent="aqVbvqTBp94p9ZoE7eEu-1" vertex="1">
          <mxGeometry x="1348.85" y="473.84" width="171" height="30" as="geometry" />
        </mxCell>
        <mxCell id="MMa_PPsF2fyLMhipfHgI-125" value="&lt;font style=&quot;&quot;&gt;&lt;span style=&quot;font-size: 24px;&quot;&gt;Jurjens&lt;/span&gt;&lt;font color=&quot;#7f00ff&quot; style=&quot;font-size: 12px; border-color: var(--border-color);&quot;&gt;&amp;nbsp;&lt;/font&gt;&lt;span style=&quot;border-color: var(--border-color);&quot;&gt;&lt;font style=&quot;border-color: var(--border-color);&quot; color=&quot;#990000&quot;&gt;&lt;sup style=&quot;font-size: 15px;&quot;&gt;12&lt;/sup&gt;&lt;/font&gt;&lt;/span&gt;&lt;font style=&quot;border-color: var(--border-color); font-size: 24px;&quot;&gt;, Mead and Hough&lt;/font&gt;&lt;font style=&quot;border-color: var(--border-color);&quot; color=&quot;#7f00ff&quot;&gt;&amp;nbsp;&lt;/font&gt;&lt;sup style=&quot;border-color: var(--border-color);&quot;&gt;&lt;font style=&quot;border-color: var(--border-color); font-size: 15px;&quot; color=&quot;#990000&quot;&gt;13&lt;/font&gt;&lt;/sup&gt;&lt;br&gt;&lt;/font&gt;" style="text;html=1;strokeColor=none;fillColor=none;align=left;verticalAlign=middle;whiteSpace=wrap;rounded=0;rotation=315;" parent="aqVbvqTBp94p9ZoE7eEu-1" vertex="1">
          <mxGeometry x="1360.38" y="418.59" width="324.44" height="30" as="geometry" />
        </mxCell>
        <mxCell id="MMa_PPsF2fyLMhipfHgI-126" value="&lt;font style=&quot;font-size: 24px;&quot;&gt;Calderón and Marta&lt;/font&gt;&lt;font color=&quot;#7f00ff&quot; style=&quot;border-color: var(--border-color);&quot;&gt;&amp;nbsp;&lt;/font&gt;&lt;sup style=&quot;border-color: var(--border-color);&quot;&gt;&lt;font style=&quot;border-color: var(--border-color); font-size: 15px;&quot; color=&quot;#990000&quot;&gt;14&lt;/font&gt;&lt;/sup&gt;" style="text;html=1;strokeColor=none;fillColor=none;align=left;verticalAlign=middle;whiteSpace=wrap;rounded=0;rotation=315;" parent="aqVbvqTBp94p9ZoE7eEu-1" vertex="1">
          <mxGeometry x="1436.6" y="447.13" width="244.18" height="30" as="geometry" />
        </mxCell>
        <mxCell id="MMa_PPsF2fyLMhipfHgI-127" value="&lt;font style=&quot;font-size: 18px;&quot;&gt;&lt;font color=&quot;#990000&quot;&gt;&lt;sup&gt;12&lt;/sup&gt;&lt;/font&gt; Secure Systems Development with UML&lt;br&gt;&lt;/font&gt;" style="text;html=1;strokeColor=none;fillColor=none;align=left;verticalAlign=middle;whiteSpace=wrap;rounded=0;labelBackgroundColor=none;" parent="aqVbvqTBp94p9ZoE7eEu-1" vertex="1">
          <mxGeometry x="960.78" y="840" width="540" height="30" as="geometry" />
        </mxCell>
        <mxCell id="MMa_PPsF2fyLMhipfHgI-128" value="&lt;font style=&quot;font-size: 18px;&quot;&gt;&lt;font style=&quot;border-color: var(--border-color);&quot; color=&quot;#990000&quot;&gt;&lt;sup style=&quot;border-color: var(--border-color);&quot;&gt;13&lt;/sup&gt;&lt;/font&gt;&amp;nbsp;Security Quality Requirements Engineering (SQUARE) Methodology&lt;br&gt;&lt;/font&gt;" style="text;html=1;strokeColor=none;fillColor=none;align=left;verticalAlign=middle;whiteSpace=wrap;rounded=0;labelBackgroundColor=none;" parent="aqVbvqTBp94p9ZoE7eEu-1" vertex="1">
          <mxGeometry x="960.78" y="870" width="710" height="30" as="geometry" />
        </mxCell>
        <mxCell id="MMa_PPsF2fyLMhipfHgI-129" value="&lt;font style=&quot;font-size: 18px;&quot;&gt;&lt;font color=&quot;#990000&quot;&gt;&lt;sup&gt;14&lt;/sup&gt;&lt;/font&gt; A Taxonomy of Security Requirements&lt;br&gt;&lt;/font&gt;" style="text;html=1;strokeColor=none;fillColor=none;align=left;verticalAlign=middle;whiteSpace=wrap;rounded=0;labelBackgroundColor=none;" parent="aqVbvqTBp94p9ZoE7eEu-1" vertex="1">
          <mxGeometry x="960.78" y="900" width="580" height="30" as="geometry" />
        </mxCell>
        <mxCell id="MMa_PPsF2fyLMhipfHgI-130" value="&lt;font style=&quot;font-size: 18px;&quot;&gt;&lt;font style=&quot;border-color: var(--border-color);&quot; color=&quot;#990000&quot;&gt;&lt;sup style=&quot;border-color: var(--border-color);&quot;&gt;15&lt;/sup&gt;&lt;/font&gt;&amp;nbsp;Distributed Immutable Ephemeral - New Paradigms for the Next Era of Security&lt;br&gt;&lt;/font&gt;" style="text;html=1;strokeColor=none;fillColor=none;align=left;verticalAlign=middle;whiteSpace=wrap;rounded=0;labelBackgroundColor=none;" parent="aqVbvqTBp94p9ZoE7eEu-1" vertex="1">
          <mxGeometry x="960.78" y="930" width="720" height="30" as="geometry" />
        </mxCell>
        <mxCell id="MMa_PPsF2fyLMhipfHgI-131" value="&lt;font style=&quot;font-size: 18px;&quot;&gt;&lt;font color=&quot;#990000&quot;&gt;&lt;sup&gt;10&lt;/sup&gt;&lt;/font&gt; Our Excessively Simplistic Information Security Model and How to Fix It&lt;br&gt;&lt;/font&gt;" style="text;html=1;strokeColor=none;fillColor=none;align=left;verticalAlign=middle;whiteSpace=wrap;rounded=0;labelBackgroundColor=none;" parent="aqVbvqTBp94p9ZoE7eEu-1" vertex="1">
          <mxGeometry x="960.78" y="780" width="720" height="30" as="geometry" />
        </mxCell>
        <mxCell id="MMa_PPsF2fyLMhipfHgI-132" value="&lt;font style=&quot;font-size: 18px;&quot;&gt;&lt;font style=&quot;border-color: var(--border-color);&quot; color=&quot;#990000&quot;&gt;&lt;sup style=&quot;border-color: var(--border-color);&quot;&gt;11&lt;/sup&gt;&lt;/font&gt;&amp;nbsp;Specifying Reusable Security Requirements&lt;br&gt;&lt;/font&gt;" style="text;html=1;strokeColor=none;fillColor=none;align=left;verticalAlign=middle;whiteSpace=wrap;rounded=0;labelBackgroundColor=none;" parent="aqVbvqTBp94p9ZoE7eEu-1" vertex="1">
          <mxGeometry x="960.78" y="810" width="560" height="30" as="geometry" />
        </mxCell>
        <mxCell id="6rY7ZdlNdj4S_0vJXPYC-0" value="&lt;font style=&quot;font-size: 24px;&quot;&gt;ISO OSI / X-800&lt;font color=&quot;#7f00ff&quot; style=&quot;border-color: var(--border-color); font-size: 12px;&quot;&gt;&amp;nbsp;&lt;/font&gt;&lt;sup style=&quot;border-color: var(--border-color);&quot;&gt;&lt;font style=&quot;border-color: var(--border-color); font-size: 15px;&quot; color=&quot;#990000&quot;&gt;6&lt;/font&gt;&lt;/sup&gt;&lt;br&gt;&lt;/font&gt;" style="text;html=1;strokeColor=none;fillColor=none;align=left;verticalAlign=middle;whiteSpace=wrap;rounded=0;rotation=315;" parent="aqVbvqTBp94p9ZoE7eEu-1" vertex="1">
          <mxGeometry x="750" y="457" width="220" height="30" as="geometry" />
        </mxCell>
        <mxCell id="6rY7ZdlNdj4S_0vJXPYC-1" value="&lt;font style=&quot;font-size: 18px;&quot;&gt;&lt;font color=&quot;#990000&quot;&gt;&lt;sup&gt;6&lt;/sup&gt;&lt;/font&gt; Information technology - Open Systems Interconnect - Basic Reference Model - Part 2: Security Architecture&lt;br&gt;&lt;/font&gt;" style="text;html=1;strokeColor=none;fillColor=none;align=left;verticalAlign=middle;whiteSpace=wrap;rounded=0;labelBackgroundColor=none;" parent="aqVbvqTBp94p9ZoE7eEu-1" vertex="1">
          <mxGeometry x="40" y="900" width="890" height="30" as="geometry" />
        </mxCell>
        <mxCell id="0oQG5dR9uh2eZfPj6eTT-0" value="Ware" parent="0" />
        <mxCell id="aqVbvqTBp94p9ZoE7eEu-135" value="&lt;font style=&quot;font-size: 24px;&quot;&gt;Ware&lt;/font&gt;&lt;font style=&quot;border-color: var(--border-color);&quot; color=&quot;#7f00ff&quot;&gt;&amp;nbsp;&lt;/font&gt;&lt;sup style=&quot;border-color: var(--border-color);&quot;&gt;&lt;font style=&quot;border-color: var(--border-color); font-size: 15px;&quot; color=&quot;#990000&quot;&gt;3&lt;/font&gt;&lt;/sup&gt;" style="text;html=1;strokeColor=none;fillColor=none;align=left;verticalAlign=middle;whiteSpace=wrap;rounded=0;rotation=-45;" parent="0oQG5dR9uh2eZfPj6eTT-0" vertex="1">
          <mxGeometry x="238" y="456.67" width="220" height="30" as="geometry" />
        </mxCell>
        <mxCell id="0oQG5dR9uh2eZfPj6eTT-1" value="Baran" parent="0" />
        <mxCell id="aqVbvqTBp94p9ZoE7eEu-136" value="&lt;font style=&quot;font-size: 24px;&quot;&gt;Baran&lt;font style=&quot;border-color: var(--border-color); font-size: 12px;&quot; color=&quot;#7f00ff&quot;&gt;&amp;nbsp;&lt;/font&gt;&lt;sup style=&quot;border-color: var(--border-color);&quot;&gt;&lt;font style=&quot;border-color: var(--border-color); font-size: 15px;&quot; color=&quot;#990000&quot;&gt;4&lt;/font&gt;&lt;/sup&gt;&lt;br&gt;&lt;/font&gt;" style="text;html=1;strokeColor=none;fillColor=none;align=left;verticalAlign=middle;whiteSpace=wrap;rounded=0;rotation=315;" parent="0oQG5dR9uh2eZfPj6eTT-1" vertex="1">
          <mxGeometry x="169.66" y="508.15" width="74.38" height="30" as="geometry" />
        </mxCell>
        <mxCell id="0oQG5dR9uh2eZfPj6eTT-2" value="434 assessment start" parent="0" />
        <mxCell id="aqVbvqTBp94p9ZoE7eEu-137" value="&lt;font style=&quot;font-size: 24px;&quot;&gt;The Orange Book&lt;font style=&quot;border-color: var(--border-color); font-size: 12px;&quot; color=&quot;#7f00ff&quot;&gt;&amp;nbsp;&lt;/font&gt;&lt;sup style=&quot;border-color: var(--border-color);&quot;&gt;&lt;font style=&quot;border-color: var(--border-color); font-size: 15px;&quot; color=&quot;#990000&quot;&gt;5&lt;/font&gt;&lt;/sup&gt;&lt;br&gt;&lt;/font&gt;" style="text;html=1;strokeColor=none;fillColor=none;align=left;verticalAlign=middle;whiteSpace=wrap;rounded=0;rotation=315;" parent="0oQG5dR9uh2eZfPj6eTT-2" vertex="1">
          <mxGeometry x="713.07" y="456.67" width="220" height="30" as="geometry" />
        </mxCell>
        <mxCell id="aqVbvqTBp94p9ZoE7eEu-123" value="&lt;font style=&quot;font-size: 24px;&quot;&gt;11 years&lt;/font&gt;" style="text;html=1;strokeColor=none;fillColor=none;align=center;verticalAlign=middle;whiteSpace=wrap;rounded=0;labelBackgroundColor=none;" parent="0oQG5dR9uh2eZfPj6eTT-2" vertex="1">
          <mxGeometry x="290" y="670" width="100" height="20" as="geometry" />
        </mxCell>
        <mxCell id="aqVbvqTBp94p9ZoE7eEu-124" value="" style="endArrow=diamond;html=1;rounded=0;startArrow=none;startFill=0;endFill=1;strokeWidth=3;strokeColor=#0000FF;" parent="0oQG5dR9uh2eZfPj6eTT-2" edge="1">
          <mxGeometry width="50" height="50" relative="1" as="geometry">
            <mxPoint x="392.9999999999998" y="680" as="sourcePoint" />
            <mxPoint x="513" y="680" as="targetPoint" />
          </mxGeometry>
        </mxCell>
        <mxCell id="hdGTD1NTb_N-D_ukH1JR-0" value="" style="endArrow=none;html=1;rounded=0;startArrow=diamond;startFill=1;endFill=0;strokeWidth=3;strokeColor=#0000FF;" parent="0oQG5dR9uh2eZfPj6eTT-2" target="aqVbvqTBp94p9ZoE7eEu-123" edge="1">
          <mxGeometry width="50" height="50" relative="1" as="geometry">
            <mxPoint x="170" y="680" as="sourcePoint" />
            <mxPoint x="730" y="680" as="targetPoint" />
          </mxGeometry>
        </mxCell>
        <mxCell id="0oQG5dR9uh2eZfPj6eTT-3" value="8 months" parent="0" />
        <mxCell id="O1b_8OKfftqbkIWUbwSC-0" value="" style="endArrow=none;html=1;rounded=0;startArrow=diamond;startFill=1;endFill=0;strokeWidth=3;strokeColor=#0000FF;" parent="0oQG5dR9uh2eZfPj6eTT-3" target="aqVbvqTBp94p9ZoE7eEu-127" edge="1">
          <mxGeometry width="50" height="50" relative="1" as="geometry">
            <mxPoint x="1440" y="680" as="sourcePoint" />
            <mxPoint x="716" y="680" as="targetPoint" />
          </mxGeometry>
        </mxCell>
        <mxCell id="aqVbvqTBp94p9ZoE7eEu-127" value="&lt;font style=&quot;font-size: 24px;&quot;&gt;31 years&lt;/font&gt;" style="text;html=1;strokeColor=none;fillColor=none;align=center;verticalAlign=middle;whiteSpace=wrap;rounded=0;labelBackgroundColor=none;" parent="0oQG5dR9uh2eZfPj6eTT-3" vertex="1">
          <mxGeometry x="890" y="670" width="100" height="20" as="geometry" />
        </mxCell>
        <mxCell id="aqVbvqTBp94p9ZoE7eEu-114" value="" style="endArrow=diamond;html=1;rounded=0;startArrow=none;startFill=0;endFill=1;strokeWidth=3;strokeColor=#0000FF;" parent="0oQG5dR9uh2eZfPj6eTT-3" source="aqVbvqTBp94p9ZoE7eEu-127" edge="1">
          <mxGeometry width="50" height="50" relative="1" as="geometry">
            <mxPoint x="940" y="680" as="sourcePoint" />
            <mxPoint x="500" y="680" as="targetPoint" />
          </mxGeometry>
        </mxCell>
        <mxCell id="0oQG5dR9uh2eZfPj6eTT-4" value="Saltzer" parent="0" />
        <mxCell id="aqVbvqTBp94p9ZoE7eEu-138" value="&lt;font color=&quot;#7f00ff&quot;&gt;&lt;span style=&quot;font-size: 24px;&quot;&gt;Saltzer and Schroeder&amp;nbsp;&lt;/span&gt;&lt;/font&gt;&lt;sup&gt;&lt;font style=&quot;font-size: 15px;&quot; color=&quot;#990000&quot;&gt;1&lt;/font&gt;&lt;/sup&gt;" style="text;html=1;strokeColor=none;fillColor=none;align=left;verticalAlign=middle;whiteSpace=wrap;rounded=0;rotation=315;" parent="0oQG5dR9uh2eZfPj6eTT-4" vertex="1">
          <mxGeometry x="466.55" y="429.81" width="296" height="30" as="geometry" />
        </mxCell>
        <mxCell id="aqVbvqTBp94p9ZoE7eEu-134" value="&lt;font style=&quot;font-size: 18px;&quot;&gt;&lt;font color=&quot;#990000&quot;&gt;&lt;sup&gt;1&lt;/sup&gt;&lt;/font&gt; The Protection of Information in Computer Systems&lt;br&gt;&lt;/font&gt;" style="text;html=1;strokeColor=none;fillColor=none;align=left;verticalAlign=middle;whiteSpace=wrap;rounded=0;labelBackgroundColor=none;" parent="0oQG5dR9uh2eZfPj6eTT-4" vertex="1">
          <mxGeometry x="40" y="750" width="540" height="30" as="geometry" />
        </mxCell>
        <mxCell id="0oQG5dR9uh2eZfPj6eTT-6" value="Conway" parent="0" />
        <mxCell id="aqVbvqTBp94p9ZoE7eEu-139" value="&lt;font style=&quot;font-size: 24px;&quot;&gt;Conway, Maxwell, and Morgan&lt;font style=&quot;border-color: var(--border-color); font-size: 12px;&quot; color=&quot;#7f00ff&quot;&gt;&amp;nbsp;&lt;/font&gt;&lt;sup style=&quot;border-color: var(--border-color);&quot;&gt;&lt;font style=&quot;border-color: var(--border-color); font-size: 15px;&quot; color=&quot;#990000&quot;&gt;2&lt;/font&gt;&lt;/sup&gt;&lt;br&gt;&lt;/font&gt;" style="text;html=1;strokeColor=none;fillColor=none;align=left;verticalAlign=middle;whiteSpace=wrap;rounded=0;rotation=315;" parent="0oQG5dR9uh2eZfPj6eTT-6" vertex="1">
          <mxGeometry x="338.02" y="409.3" width="354" height="30" as="geometry" />
        </mxCell>
        <mxCell id="0oQG5dR9uh2eZfPj6eTT-7" value="Federal Register / Parker" style="" parent="0" />
        <mxCell id="aqVbvqTBp94p9ZoE7eEu-140" value="&lt;font style=&quot;font-size: 24px;&quot;&gt;Federal Register&lt;/font&gt;&lt;font style=&quot;border-color: var(--border-color);&quot; color=&quot;#7f00ff&quot;&gt;&amp;nbsp;&lt;/font&gt;&lt;sup style=&quot;border-color: var(--border-color);&quot;&gt;&lt;font style=&quot;border-color: var(--border-color); font-size: 15px;&quot; color=&quot;#990000&quot;&gt;8&lt;/font&gt;&lt;/sup&gt;&lt;font style=&quot;font-size: 24px;&quot;&gt;, Parker&lt;/font&gt;&lt;font style=&quot;border-color: var(--border-color);&quot; color=&quot;#7f00ff&quot;&gt;&amp;nbsp;&lt;/font&gt;&lt;sup style=&quot;border-color: var(--border-color);&quot;&gt;&lt;font style=&quot;border-color: var(--border-color); font-size: 15px;&quot; color=&quot;#990000&quot;&gt;10&lt;/font&gt;&lt;/sup&gt;" style="text;html=1;strokeColor=none;fillColor=none;align=left;verticalAlign=middle;whiteSpace=wrap;rounded=0;rotation=315;" parent="0oQG5dR9uh2eZfPj6eTT-7" vertex="1">
          <mxGeometry x="1273.82" y="426.93" width="304.11" height="30" as="geometry" />
        </mxCell>
        <mxCell id="0oQG5dR9uh2eZfPj6eTT-8" value="MS SDL" parent="0" />
        <mxCell id="aqVbvqTBp94p9ZoE7eEu-141" value="&lt;font color=&quot;#7f00ff&quot;&gt;&lt;span style=&quot;font-size: 24px;&quot;&gt;Microsoft SDL Book&lt;/span&gt;&lt;/font&gt;&lt;font style=&quot;border-color: var(--border-color);&quot; color=&quot;#7f00ff&quot;&gt;&amp;nbsp;&lt;/font&gt;&lt;sup style=&quot;border-color: var(--border-color);&quot;&gt;&lt;font style=&quot;border-color: var(--border-color); font-size: 15px;&quot; color=&quot;#990000&quot;&gt;9&lt;/font&gt;&lt;/sup&gt;" style="text;html=1;strokeColor=none;fillColor=none;align=left;verticalAlign=middle;whiteSpace=wrap;rounded=0;rotation=315;" parent="0oQG5dR9uh2eZfPj6eTT-8" vertex="1">
          <mxGeometry x="1405.97" y="452.32" width="232.34" height="30" as="geometry" />
        </mxCell>
        <mxCell id="0oQG5dR9uh2eZfPj6eTT-5" value="&lt;font style=&quot;font-size: 18px;&quot;&gt;&lt;font style=&quot;border-color: var(--border-color);&quot; color=&quot;#990000&quot;&gt;&lt;sup style=&quot;border-color: var(--border-color);&quot;&gt;2&lt;/sup&gt;&lt;/font&gt;&amp;nbsp;On the implementation of security measures in information systems&lt;br&gt;&lt;/font&gt;" style="text;html=1;strokeColor=none;fillColor=none;align=left;verticalAlign=middle;whiteSpace=wrap;rounded=0;labelBackgroundColor=none;" parent="0oQG5dR9uh2eZfPj6eTT-8" vertex="1">
          <mxGeometry x="40" y="780" width="560" height="30" as="geometry" />
        </mxCell>
      </root>
    </mxGraphModel>
  </diagram>
</mxfile>
